<svg width="24" height="25" viewBox="0 0 24 25" fill="none" xmlns="http://www.w3.org/2000/svg">
<g clip-path="url(#clip0_352_10494)">
<path d="M0 0.282959H24V24.283H0V0.282959Z" fill="#CC0000"/>
<path d="M0.0195312 2.27515H23.982V4.19702H0.0195312V2.27515ZM0.0195312 6.21265H23.982V8.13452H0.0195312V6.21265ZM0.0195312 10.1548H23.982V12.0767H0.0195312V10.1548Z" fill="white"/>
<path d="M0 0.282959H12V14.2845H0V0.282959Z" fill="#000066"/>
<path d="M8.08537 4.35166L8.34788 6.14229L9.36037 4.64229L8.81663 6.36729L10.3776 5.45791L9.14006 6.7751L10.9447 6.63447L9.25725 7.28135L10.9447 7.9376L9.14006 7.79229L10.3776 9.10479L8.81194 8.20479L9.35569 9.9251L8.34319 8.42979L8.08069 10.2157L7.81819 8.43447L6.81038 9.9251L7.34944 8.20479L5.79319 9.11416L7.026 7.79697L5.226 7.9376L6.9135 7.28604L5.226 6.63447L7.026 6.77979L5.79319 5.4626L7.34944 6.37197L6.81506 4.64229L7.82287 6.14229L8.08537 4.35166ZM6.62288 4.42666C6.14685 4.21507 5.6255 4.12577 5.1062 4.16688C4.58689 4.20799 4.08608 4.3782 3.64928 4.66206C3.21248 4.94591 2.85352 5.3344 2.60502 5.79224C2.35653 6.25009 2.22637 6.76276 2.22637 7.28369C2.22637 7.80462 2.35653 8.3173 2.60502 8.77514C2.85352 9.23298 3.21248 9.62148 3.64928 9.90533C4.08608 10.1892 4.58689 10.3594 5.1062 10.4005C5.6255 10.4416 6.14685 10.3523 6.62288 10.1407C6.09749 10.5175 5.47839 10.742 4.83366 10.7897C4.18892 10.8374 3.54352 10.7064 2.9684 10.4111C2.39328 10.1158 1.91073 9.66768 1.5738 9.11593C1.23686 8.56417 1.05859 7.93019 1.05859 7.28369C1.05859 6.63719 1.23686 6.00322 1.5738 5.45146C1.91073 4.8997 2.39328 4.45154 2.9684 4.15624C3.54352 3.86094 4.18892 3.72994 4.83366 3.77765C5.47839 3.82536 6.09749 4.04993 6.62288 4.42666Z" fill="#FFCC00"/>
<path d="M0.01875 14.0923H23.9813V16.0142H0.01875V14.0923ZM0.01875 18.0063H23.9813V19.9282H0.01875V18.0063ZM0 22.361H23.9625V24.2829H0V22.361Z" fill="white"/>
</g>
<defs>
<clipPath id="clip0_352_10494">
<rect y="0.282959" width="24" height="24" rx="12" fill="white"/>
</clipPath>
</defs>
</svg>
