<svg width="24" height="25" viewBox="0 0 24 25" fill="none" xmlns="http://www.w3.org/2000/svg">
<g clip-path="url(#clip0_352_10500)">
<mask id="mask0_352_10500" style="mask-type:luminance" maskUnits="userSpaceOnUse" x="0" y="0" width="24" height="25">
<path d="M0 0.282959H24V24.283H0V0.282959Z" fill="white"/>
</mask>
<g mask="url(#mask0_352_10500)">
<path d="M0 0.282959H36V24.283H0V0.282959Z" fill="#FF0000"/>
<path d="M0 0.282959H18V12.283H0V0.282959Z" fill="#000095"/>
<path d="M7.70078 6.62978L7.57422 7.10791L8.04766 7.23447L7.95391 6.8876L7.70078 6.62978ZM10.0445 6.8876L9.95078 7.23447L10.4242 7.10791L10.2977 6.62978L10.0445 6.8876ZM7.95391 5.67822L7.70078 5.93604L7.79453 6.28291L7.95391 5.67822Z" fill="white"/>
<path d="M7.79492 6.28296L7.70117 6.62983L7.9543 6.88765L7.79492 6.28296Z" fill="white"/>
<path d="M7.70234 5.93604L7.35547 6.28291L7.70234 6.62978L7.79609 6.28291L7.70234 5.93604ZM8.39609 7.32822L8.65391 7.58135L9.00078 7.4876L8.39609 7.32822ZM9.34766 7.58135L9.82578 7.70791L9.95234 7.23447L9.60547 7.32822L9.34766 7.58135Z" fill="white"/>
<path d="M9.60508 7.32832L9.95195 7.23457L10.0457 6.8877L9.60508 7.32832ZM8.04883 7.23457L8.17539 7.70801L8.65352 7.58145L8.3957 7.32832L8.04883 7.23457ZM9.00039 7.4877L9.34727 7.58145L9.60508 7.32832L9.00039 7.4877Z" fill="white"/>
<path d="M8.65234 7.58179L8.99922 7.92866L9.34609 7.58179L8.99922 7.48804L8.65234 7.58179ZM8.04766 5.33179L7.57422 5.45835L7.70078 5.93647L7.95391 5.67866L8.04766 5.33179ZM7.95391 6.88804L8.04766 7.23491L8.39453 7.32866L7.95391 6.88804ZM10.2039 6.28335L10.2977 5.93647L10.0445 5.67866L10.2039 6.28335Z" fill="white"/>
<path d="M8.3957 5.23804L8.04883 5.33179L7.95508 5.67866L8.3957 5.23804ZM10.0457 5.67866L9.95195 5.33179L9.60508 5.23804L10.0457 5.67866ZM10.2988 6.63022L10.6457 6.28335L10.2988 5.93647L10.2051 6.28335L10.2988 6.63022Z" fill="white"/>
<path d="M10.0449 5.67788L9.6043 5.23726L8.99961 5.07788L8.39492 5.23726L7.9543 5.67788L7.79492 6.28257L7.9543 6.88726L8.39492 7.32788L8.99961 7.48726L9.6043 7.32788L10.0449 6.88726L10.2043 6.28257L10.0449 5.67788Z" fill="white"/>
<path d="M10.0457 6.8876L10.2988 6.62979L10.2051 6.28291L10.0457 6.8876ZM10.2988 5.93604L10.4254 5.45791L9.95195 5.33135L10.0457 5.67822L10.2988 5.93604ZM9.95195 5.33135L9.82539 4.85791L9.34727 4.98447L9.60508 5.2376L9.95195 5.33135ZM8.65352 4.98447L8.17539 4.85791L8.04883 5.33135L8.3957 5.2376L8.65352 4.98447Z" fill="white"/>
<path d="M8.99922 5.07788L8.65234 4.98413L8.39453 5.23726L8.99922 5.07788Z" fill="white"/>
<path d="M9.34609 4.98457L8.99922 4.6377L8.65234 4.98457L8.99922 5.07832L9.34609 4.98457Z" fill="white"/>
<path d="M9.60547 5.23726L9.34766 4.98413L9.00078 5.07788L9.60547 5.23726ZM8.65391 7.58101L8.17578 7.70757L8.39609 8.53257L9.00078 7.92788L8.65391 7.58101ZM8.39609 8.53257L9.00078 10.7826L9.60547 8.53257L9.00078 7.92788L8.39609 8.53257ZM8.04922 7.23413L7.57578 7.10757L7.35547 7.92788L8.17578 7.70757L8.04922 7.23413Z" fill="white"/>
<path d="M7.35547 7.92832L6.75078 10.1783L8.39609 8.53301L8.17578 7.70801L7.35547 7.92832ZM6.75078 6.8877L5.10547 8.53301L7.35547 7.92832L7.57578 7.10801L6.75078 6.8877Z" fill="white"/>
<path d="M7.70156 6.62988L7.35469 6.28301L6.75 6.88769L7.575 7.10801L7.70156 6.62988ZM7.70156 5.93613L7.575 5.45801L6.75 5.67832L7.35469 6.28301L7.70156 5.93613Z" fill="white"/>
<path d="M6.75 5.67822L4.5 6.28291L6.75 6.8876L7.35469 6.28291L6.75 5.67822ZM11.25 6.8876L10.425 7.10791L10.6453 7.92822L12.8953 8.53291L11.25 6.8876Z" fill="white"/>
<path d="M9.95156 7.23457L9.825 7.70801L10.6453 7.92832L10.425 7.10801L9.95156 7.23457ZM9.34687 7.58145L9 7.92832L9.60469 8.53301L9.825 7.70801L9.34687 7.58145ZM10.2984 6.62988L10.425 7.10801L11.25 6.88769L10.6453 6.28301L10.2984 6.62988ZM9.60469 8.53301L11.25 10.1783L10.6453 7.92832L9.825 7.70801L9.60469 8.53301ZM9.95156 5.33145L10.425 5.45801L10.6453 4.6377L9.825 4.85801L9.95156 5.33145ZM11.25 5.67832L12.8953 4.03301L10.6453 4.6377L10.425 5.45801L11.25 5.67832ZM10.6453 4.6377L11.25 2.3877L9.60469 4.03301L9.825 4.85801L10.6453 4.6377ZM11.25 6.88769L13.5 6.28301L11.25 5.67832L10.6453 6.28301L11.25 6.88769Z" fill="white"/>
<path d="M10.2984 5.93613L10.6453 6.28301L11.25 5.67832L10.425 5.45801L10.2984 5.93613ZM8.39531 4.03301L6.75 2.3877L7.35469 4.6377L8.175 4.85801L8.39531 4.03301ZM8.04844 5.33145L8.175 4.85801L7.35469 4.6377L7.575 5.45801L8.04844 5.33145Z" fill="white"/>
<path d="M7.35547 4.63765L5.10547 4.03296L6.75078 5.67827L7.57578 5.45796L7.35547 4.63765ZM9.34766 4.98452L9.82578 4.85796L9.60547 4.03296L9.00078 4.63765L9.34766 4.98452Z" fill="white"/>
<path d="M9.60391 4.03296L8.99922 1.78296L8.39453 4.03296L8.99922 4.63765L9.60391 4.03296Z" fill="white"/>
<path d="M8.65391 4.98452L9.00078 4.63765L8.39609 4.03296L8.17578 4.85796L8.65391 4.98452Z" fill="white"/>
<path d="M8.99922 8.83291C10.4075 8.83291 11.5492 7.69124 11.5492 6.28291C11.5492 4.87458 10.4075 3.73291 8.99922 3.73291C7.59089 3.73291 6.44922 4.87458 6.44922 6.28291C6.44922 7.69124 7.59089 8.83291 8.99922 8.83291Z" fill="#000095"/>
<path d="M9 8.53296C10.2426 8.53296 11.25 7.5256 11.25 6.28296C11.25 5.04032 10.2426 4.03296 9 4.03296C7.75736 4.03296 6.75 5.04032 6.75 6.28296C6.75 7.5256 7.75736 8.53296 9 8.53296Z" fill="white"/>
</g>
</g>
<defs>
<clipPath id="clip0_352_10500">
<rect y="0.282959" width="24" height="24" rx="12" fill="white"/>
</clipPath>
</defs>
</svg>
